<?xml version="1.0" standalone="no"?>
<!DOCTYPE svg PUBLIC "-//W3C//DTD SVG 20010904//EN"
 "http://www.w3.org/TR/2001/REC-SVG-20010904/DTD/svg10.dtd">
<svg version="1.0" xmlns="http://www.w3.org/2000/svg"
 width="553.000000pt" height="160.000000pt" viewBox="0 0 553.000000 160.000000"
 preserveAspectRatio="xMidYMid meet">
<metadata>
Created by potrace 1.16, written by Peter Selinger 2001-2019
</metadata>
<g transform="translate(0.000000,160.000000) scale(0.100000,-0.100000)"
fill="#000000" stroke="none">
<path d="M310 1390 c0 -5 -11 -10 -25 -10 -39 0 -135 -100 -135 -140 0 -16 -4
-30 -10 -30 -6 0 -10 -50 -10 -130 0 -80 4 -130 10 -130 6 0 10 -13 10 -30 0
-16 5 -30 10 -30 6 0 10 -5 10 -10 0 -22 90 -100 115 -100 14 0 25 -4 25 -10
0 -6 32 -10 75 -10 43 0 75 4 75 10 0 6 11 10 25 10 31 0 115 80 115 110 0 11
5 20 10 20 6 0 10 14 10 30 l0 30 -60 0 c-53 0 -60 -2 -60 -20 0 -11 -4 -20
-10 -20 -5 0 -10 -9 -10 -20 0 -15 -7 -20 -25 -20 -16 0 -25 -6 -25 -15 0 -12
-13 -15 -60 -15 -42 0 -60 4 -60 13 0 7 -9 19 -20 27 -11 8 -20 22 -20 32 0
10 -4 18 -10 18 -6 0 -10 50 -10 130 0 80 4 130 10 130 6 0 10 9 10 20 0 11 5
20 10 20 6 0 10 7 10 15 0 8 9 15 20 15 11 0 20 5 20 10 0 6 23 10 50 10 28 0
50 -4 50 -10 0 -5 11 -10 25 -10 20 0 25 -5 25 -25 0 -14 5 -25 10 -25 6 0 10
-7 10 -16 0 -28 27 -44 74 -44 l46 0 0 40 c0 22 -4 40 -10 40 -5 0 -10 9 -10
20 0 24 -62 90 -85 90 -8 0 -15 5 -15 10 0 6 -9 10 -20 10 -11 0 -20 5 -20 10
0 6 -32 10 -75 10 -43 0 -75 -4 -75 -10z"/>
<path d="M1650 1350 c0 -27 5 -50 10 -50 6 0 10 -25 10 -55 0 -30 5 -55 10
-55 6 0 10 -18 10 -40 0 -22 5 -40 10 -40 6 0 10 -22 10 -50 0 -27 5 -50 10
-50 6 0 10 -18 10 -40 0 -25 5 -40 13 -40 8 0 7 -4 -3 -10 -10 -6 -11 -10 -2
-10 8 0 12 -16 12 -45 0 -25 5 -45 10 -45 6 0 10 -13 10 -30 0 -30 0 -30 56
-30 66 0 84 14 84 64 0 20 5 36 10 36 6 0 10 20 10 45 0 25 5 45 10 45 6 0 10
18 10 40 0 22 5 40 10 40 6 0 10 23 10 50 0 28 5 50 10 50 6 0 10 9 10 20 0
11 5 20 10 20 6 0 10 -18 10 -40 0 -29 4 -40 15 -40 11 0 15 -11 15 -40 0 -22
5 -40 10 -40 6 0 10 -18 10 -40 0 -22 5 -40 10 -40 6 0 10 -20 10 -45 0 -25 5
-45 10 -45 6 0 10 -18 10 -40 l0 -40 70 0 70 0 0 40 c0 22 5 40 10 40 6 0 10
25 10 55 0 30 5 55 10 55 6 0 10 23 10 50 0 28 5 50 10 50 6 0 10 18 10 40 0
22 5 40 10 40 6 0 10 23 10 50 0 28 5 50 10 50 6 0 10 20 10 45 0 25 5 45 10
45 6 0 10 18 10 40 l0 40 -60 0 -60 0 0 -40 c0 -22 -4 -40 -10 -40 -6 0 -10
-28 -10 -65 0 -37 -4 -65 -10 -65 -5 0 -10 -22 -10 -50 0 -27 -4 -50 -10 -50
-5 0 -10 -22 -10 -50 0 -43 -3 -50 -20 -50 -17 0 -20 7 -20 40 0 22 -4 40 -10
40 -5 0 -10 23 -10 50 0 28 -4 50 -10 50 -5 0 -10 18 -10 40 0 22 -4 40 -10
40 -5 0 -10 20 -10 45 0 25 -4 45 -10 45 -5 0 -10 14 -10 30 0 30 -1 30 -55
30 -48 0 -55 -2 -55 -20 0 -11 -4 -20 -10 -20 -5 0 -10 -18 -10 -40 0 -22 -4
-40 -10 -40 -5 0 -10 -20 -10 -45 0 -25 -4 -45 -10 -45 -5 0 -10 -22 -10 -50
0 -27 -4 -50 -10 -50 -5 0 -10 -18 -10 -40 0 -22 -4 -40 -10 -40 -5 0 -10 -9
-10 -20 0 -11 -4 -20 -10 -20 -5 0 -10 20 -10 44 0 25 -4 48 -10 51 -5 3 -10
28 -10 56 0 27 -4 49 -10 49 -5 0 -10 25 -10 55 0 30 -4 55 -10 55 -5 0 -10
21 -10 46 0 26 -6 52 -14 60 -8 8 -34 14 -60 14 l-46 0 0 -50z"/>
<path d="M2450 1080 l0 -320 60 0 60 0 0 320 0 320 -60 0 -60 0 0 -320z"/>
<path d="M2690 1080 l0 -320 60 0 60 0 0 205 c0 139 3 205 11 205 15 0 39 -26
39 -42 0 -8 9 -20 20 -28 11 -8 20 -22 20 -32 0 -10 5 -18 10 -18 6 0 10 -8
10 -18 0 -10 9 -24 20 -32 11 -8 20 -22 20 -32 0 -10 5 -18 10 -18 6 0 10 -8
10 -18 0 -10 9 -24 20 -32 11 -8 20 -25 20 -37 0 -13 5 -23 10 -23 6 0 10 -7
10 -15 0 -9 11 -27 25 -40 20 -21 34 -25 80 -25 l55 0 0 320 0 320 -60 0 -60
0 0 -205 c0 -130 -4 -205 -10 -205 -5 0 -10 8 -10 18 0 10 -9 24 -20 32 -11 8
-20 21 -20 30 0 9 -9 22 -20 30 -11 8 -20 22 -20 32 0 10 -4 18 -10 18 -5 0
-10 8 -10 18 0 10 -9 24 -20 32 -11 8 -20 22 -20 32 0 10 -4 18 -10 18 -5 0
-10 10 -10 23 0 12 -9 29 -20 37 -11 8 -20 22 -20 32 0 10 -4 18 -10 18 -5 0
-10 9 -10 20 0 18 -7 20 -75 20 l-75 0 0 -320z"/>
<path d="M1320 1040 l0 -50 120 0 120 0 0 50 0 50 -120 0 -120 0 0 -50z"/>
<path d="M792 488 c3 -7 20 -73 39 -145 27 -104 38 -133 51 -133 17 0 24 19
64 170 10 36 20 68 24 72 3 4 21 -48 39 -117 51 -188 51 -188 139 148 3 11 -1
17 -11 17 -17 0 -24 -19 -52 -145 -9 -38 -18 -77 -21 -85 -3 -8 -18 33 -33 92
-36 137 -37 138 -60 138 -15 0 -23 -10 -31 -42 -7 -24 -22 -79 -35 -123 l-23
-80 -10 40 c-6 22 -19 77 -29 123 -14 67 -21 82 -36 82 -11 0 -17 -5 -15 -12z"/>
<path d="M2453 494 c-57 -13 -102 -98 -89 -170 10 -49 61 -100 110 -109 47 -9
102 11 129 47 43 58 29 177 -27 213 -26 18 -86 27 -123 19z m100 -45 c15 -11
31 -37 37 -57 30 -114 -83 -200 -161 -123 -25 26 -29 37 -29 86 0 49 4 60 29
86 36 35 86 39 124 8z"/>
<path d="M3410 482 c-49 -24 -72 -73 -67 -140 5 -65 30 -102 84 -121 57 -20
116 -3 143 42 18 30 19 32 2 38 -11 4 -19 0 -24 -11 -24 -62 -129 -64 -157 -3
-6 13 -11 48 -11 78 0 47 3 56 31 79 42 35 83 34 118 -3 18 -19 32 -26 40 -21
20 12 -5 49 -44 66 -45 18 -73 18 -115 -4z"/>
<path d="M3700 482 c-93 -46 -92 -204 1 -254 42 -23 73 -23 125 1 68 31 92
116 55 197 -14 31 -28 45 -60 57 -53 21 -77 21 -121 -1z m131 -41 c25 -26 29
-37 29 -86 0 -49 -4 -60 -29 -86 -55 -55 -140 -29 -161 49 -30 114 83 200 161
123z"/>
<path d="M3941 448 c11 -29 37 -95 56 -145 26 -68 40 -93 53 -93 13 0 27 25
53 93 19 50 45 116 56 145 20 49 20 52 3 52 -14 0 -28 -28 -63 -125 -24 -69
-46 -125 -49 -125 -3 0 -25 56 -49 125 -34 100 -47 125 -62 125 -18 0 -18 -2
2 -52z"/>
<path d="M4330 355 l0 -145 68 0 c107 0 152 37 160 133 9 109 -41 157 -162
157 l-66 0 0 -145z m165 90 c22 -21 25 -33 25 -90 0 -57 -3 -69 -25 -90 -20
-21 -34 -25 -80 -25 l-55 0 0 115 0 115 55 0 c46 0 60 -4 80 -25z"/>
<path d="M5230 488 c-55 -29 -66 -104 -21 -149 33 -32 53 -36 94 -15 27 15 27
14 27 -15 0 -57 -75 -93 -102 -49 -15 23 -38 27 -38 6 0 -20 27 -45 56 -52 34
-9 82 14 98 45 32 63 27 175 -11 212 -24 25 -72 32 -103 17z"/>
<path d="M1500 315 c0 -87 3 -105 15 -105 12 0 15 14 15 68 0 94 27 128 84
106 13 -5 16 -23 16 -90 0 -77 2 -84 20 -84 18 0 20 7 20 73 0 83 -14 118 -54
132 -21 7 -34 6 -57 -7 -24 -14 -29 -15 -29 -3 0 8 -7 15 -15 15 -12 0 -15
-18 -15 -105z"/>
<path d="M1810 315 c0 -98 1 -105 20 -105 18 0 20 7 20 78 0 86 8 102 52 102
37 0 48 -24 48 -109 0 -56 3 -71 15 -71 12 0 15 15 15 74 0 41 -4 86 -9 99
-13 33 -60 44 -101 24 -26 -13 -30 -13 -30 -1 0 8 -7 14 -15 14 -12 0 -15 -18
-15 -105z"/>
<path d="M2072 410 c-51 -21 -64 -120 -23 -171 19 -23 69 -31 104 -15 13 6 17
4 17 -12 0 -50 -66 -69 -107 -30 -13 12 -26 19 -29 15 -12 -11 7 -44 32 -55
26 -12 122 -17 111 -6 -3 4 0 16 8 28 22 30 22 256 0 256 -8 0 -15 -7 -15 -16
0 -14 -2 -14 -22 0 -25 18 -42 19 -76 6z"/>
<path d="M2924 410 c-57 -23 -73 -116 -30 -167 20 -23 32 -28 69 -28 43 0 87
24 87 47 0 13 -27 9 -40 -7 -19 -23 -76 -19 -94 7 -29 42 -22 48 59 48 l75 0
0 28 c-1 60 -65 97 -126 72z"/>
</g>
</svg>
